<svg width="20" height="20" viewBox="0 0 16 12" fill="none" xmlns="http://www.w3.org/2000/svg">
<path d="M14.7411 5.25857C15.0863 5.70143 15.0863 6.29929 14.7411 6.74143C13.6539 8.13357 11.0455 11 8.00011 11C4.95475 11 2.34631 8.13357 1.2591 6.74143C1.09116 6.52938 1 6.26851 1 6C1 5.73149 1.09116 5.47062 1.2591 5.25857C2.34631 3.86643 4.95475 1 8.00011 1C11.0455 1 13.6539 3.86643 14.7411 5.25857V5.25857Z" stroke="#FFBB00" stroke-width="1.5" stroke-linecap="round" stroke-linejoin="round"/>
<path d="M8.00017 8.14314C9.20671 8.14314 10.1848 7.18375 10.1848 6.00028C10.1848 4.81681 9.20671 3.85742 8.00017 3.85742C6.79364 3.85742 5.81555 4.81681 5.81555 6.00028C5.81555 7.18375 6.79364 8.14314 8.00017 8.14314Z" stroke="#FFBB00" stroke-width="1.5" stroke-linecap="round" stroke-linejoin="round"/>
</svg>
