<svg width="20" height="20" viewBox="0 0 14 12" fill="none" xmlns="http://www.w3.org/2000/svg">
<path d="M13.9073 5.69273C13.3428 4.53975 12.6712 3.59944 11.8922 2.87179L11.0753 3.66389C11.7415 4.28117 12.3217 5.08868 12.8235 6.09438C11.4876 8.77521 9.59142 10.0487 6.99999 10.0487C6.22213 10.0487 5.50566 9.93254 4.85058 9.70026L3.96541 10.5585C4.87525 10.9659 5.88678 11.1696 6.99999 11.1696C10.0859 11.1696 12.3884 9.61121 13.9073 6.49448C13.9683 6.36914 14 6.23223 14 6.0936C14 5.95498 13.9683 5.81807 13.9073 5.69273V5.69273ZM12.8866 0.700973L12.2021 0.0365273C12.1902 0.0249475 12.176 0.0157613 12.1604 0.00949369C12.1448 0.00322607 12.1281 0 12.1112 0C12.0944 0 12.0777 0.00322607 12.0621 0.00949369C12.0465 0.0157613 12.0323 0.0249475 12.0204 0.0365273L10.2643 1.73843C9.29615 1.25893 8.20804 1.01918 6.99999 1.01918C3.91403 1.01918 1.61161 2.57755 0.0927156 5.69428C0.0316634 5.81963 0 5.95654 0 6.09516C0 6.23378 0.0316634 6.37069 0.0927156 6.49604C0.699524 7.73526 1.43007 8.72855 2.28435 9.47593L0.585313 11.1229C0.561242 11.1462 0.547721 11.1779 0.547721 11.2109C0.547721 11.2439 0.561242 11.2756 0.585313 11.2989L1.27074 11.9636C1.29483 11.9869 1.32749 12 1.36154 12C1.39559 12 1.42825 11.9869 1.45233 11.9636L12.8866 0.877204C12.8985 0.865637 12.908 0.851901 12.9145 0.836782C12.9209 0.821662 12.9243 0.805456 12.9243 0.789089C12.9243 0.772722 12.9209 0.756515 12.9145 0.741395C12.908 0.726276 12.8985 0.71254 12.8866 0.700973ZM1.17649 6.09438C2.51396 3.41356 4.41016 2.14009 6.99999 2.14009C7.87568 2.14009 8.6719 2.2858 9.39426 2.58207L8.26552 3.6765C7.73097 3.39996 7.1189 3.29732 6.5196 3.38374C5.92031 3.47015 5.36553 3.74105 4.93711 4.15645C4.50868 4.57186 4.2293 5.10978 4.14018 5.69086C4.05105 6.27195 4.1569 6.86542 4.44212 7.38373L3.10273 8.68242C2.36142 8.04802 1.7224 7.18851 1.17649 6.09438ZM5.1375 6.09438C5.13778 5.81986 5.20484 5.54928 5.33324 5.30461C5.46163 5.05994 5.64774 4.84809 5.87645 4.68626C6.10515 4.52444 6.36999 4.4172 6.64947 4.37327C6.92894 4.32934 7.21516 4.34995 7.48488 4.43342L5.22276 6.62681C5.16606 6.45469 5.1373 6.27507 5.1375 6.09438V6.09438Z" fill="#FFBB00"/>
<path d="M6.95939 7.81331C6.90443 7.81331 6.85025 7.8108 6.79656 7.80592L5.95745 8.63645C6.46214 8.82776 7.01201 8.87027 7.54059 8.75885C8.06917 8.64743 8.55383 8.38686 8.93598 8.00862C9.31812 7.63038 9.58139 7.15068 9.69396 6.6275C9.80653 6.10433 9.76358 5.56008 9.5703 5.06055L8.73119 5.89108C8.73611 5.94422 8.73865 5.99784 8.73865 6.05225C8.73878 6.28355 8.69284 6.51261 8.60347 6.72632C8.5141 6.94004 8.38304 7.13423 8.2178 7.29779C8.05255 7.46134 7.85636 7.59105 7.64043 7.67951C7.42451 7.76797 7.19308 7.81344 6.95939 7.81331V7.81331Z" fill="#FFBB00"/>
</svg>
